<?xml version="1.0" encoding="UTF-8"?>
<svg xmlns="http://www.w3.org/2000/svg" xmlns:xlink="http://www.w3.org/1999/xlink" width="3081px" height="796px" viewBox="0 0 3081 796" version="1.1">
  <title>CHN--Logo-Horizonta-C</title>
  <g id="Page-1" stroke="none" stroke-width="1" fill="none" fill-rule="evenodd">
    <g id="CHN--Logo-Horizonta-C">
      <g id="Group-7" transform="translate(953.000000, 122.000000)">
        <path d="M182.258175,105.38789 L182.258175,64.3509607 C172.756786,61.8284858 158.060056,58.1381985 138.636033,58.1381985 C77.4386621,58.1381985 45.4943364,95.531553 45.4943364,159.551031 C45.4943364,217.754803 80.7384056,258.721664 133.159863,258.721664 C150.758495,258.721664 169.480445,256.946589 179.005236,255.054733 L180.456187,208.972854 L217.127805,208.972854 L215.653452,278.878107 C199.154734,284.390182 166.180701,291 135.710729,291 C43.6689464,291 0,233.893971 0,161.022475 C0,81.2375286 53.568177,26 139.010472,26 C171.282432,26 201.752404,32.8900934 219,39.8736118 L219,105.38789 L182.258175,105.38789" id="Fill-34" fill="#C51E3C"></path>
        <path d="M344.950842,256.478424 C382.293619,256.478424 398.768374,225.216698 398.768374,187.693246 C398.768374,144.728893 376.451507,125.545028 347.871897,125.545028 C307.234169,125.545028 292.208258,159.761726 292.208258,193.579737 C292.208258,225.545028 307.935222,256.478424 344.950842,256.478424 Z M348.596319,91 C418.888606,91 442,145.080675 442,192.102251 C442,246.464353 409.003753,291 343.852525,291 C275.710134,291 249,243.603189 249,195.010319 C249,132.580675 290.36215,91 348.596319,91 L348.596319,91 Z" id="Fill-35" fill="#C51E3C"></path>
        <path d="M459.422556,257.01799 L481.067342,257.01799 L481.792735,126.448909 L455,126.448909 L455,96.3967378 L522.81253,96.3967378 C522.81253,109.259535 521.75954,122.449748 519.162166,138.586711 L519.887559,138.586711 C527.609482,110.358719 553.302428,92 585.196313,92 C622.94014,92 640.18577,111.48129 643.836134,135.265771 L644.608326,135.265771 C653.383239,107.411969 677.602,92 709.870281,92 C753.885246,92 775.530032,120.274766 775.530032,165.692132 C775.530032,196.141881 775.155636,226.591629 774.032447,257.01799 L799,257.01799 L799,287 L711.344466,287 L711.344466,257.01799 L732.965853,257.01799 C734.089042,229.117414 734.416638,200.889422 734.416638,173.03562 C734.416638,146.234229 721.944562,126.448909 695.924019,126.448909 C668.054894,126.448909 650.083872,148.876949 649.358479,184.448429 L648.609686,257.01799 L672.805047,257.01799 L672.805047,287 L586.670499,287 L586.670499,257.01799 L607.566492,257.01799 L608.268485,180.355721 C608.642881,151.051931 600.944358,126.448909 570.150262,126.448909 C545.580505,126.448909 523.233726,148.876949 522.81253,184.448429 L522.133936,257.01799 L547.803483,257.01799 L547.803483,287 L459.422556,287 L459.422556,257.01799" id="Fill-36" fill="#C51E3C"></path>
        <path d="M826.375757,257.01799 L848.067342,257.01799 L848.792735,126.448909 L822,126.448909 L822,96.3967378 L889.83593,96.3967378 C889.83593,109.259535 888.73614,122.449748 886.162166,138.586711 L886.910958,138.586711 C894.586083,110.358719 920.279029,92 952.126114,92 C989.98694,92 1007.20917,111.48129 1010.83613,135.265771 L1011.58493,135.265771 C1020.38324,107.411969 1044.5786,92 1076.89368,92 C1120.88525,92 1142.50663,120.274766 1142.50663,165.692132 C1142.50663,196.141881 1142.15564,226.591629 1141.05585,257.01799 L1166,257.01799 L1166,287 L1078.32107,287 L1078.32107,257.01799 L1100.01265,257.01799 C1101.01884,229.117414 1101.44004,200.889422 1101.44004,173.03562 C1101.44004,146.234229 1089.01476,126.448909 1062.87722,126.448909 C1035.10169,126.448909 1017.10727,148.876949 1016.33508,184.448429 L1015.63309,257.01799 L1039.82845,257.01799 L1039.82845,287 L953.647099,287 L953.647099,257.01799 L974.566492,257.01799 L975.315285,180.355721 C975.666281,151.051931 967.991157,126.448909 937.150262,126.448909 C912.603904,126.448909 890.233726,148.876949 889.83593,184.448429 L889.110537,257.01799 L914.756683,257.01799 L914.756683,287 L826.375757,287 L826.375757,257.01799" id="Fill-37" fill="#C51E3C"></path>
        <path d="M1170,96 L1236.32343,96 C1235.64547,133.73741 1234.92075,171.919065 1234.92075,209.983813 C1234.92075,236.708633 1247.38123,256.582734 1272.27882,256.582734 C1299.37394,256.582734 1321.02198,234.183453 1321.39603,198.573741 L1322.07399,126.044964 L1297.19979,126.044964 L1297.19979,96 L1363.10241,96 L1362.37769,256.582734 L1388,256.582734 L1388,286.557554 L1322.07399,286.557554 C1322.07399,273.744604 1323.2429,260.580935 1325.72097,244.42446 L1324.99625,244.42446 C1317.35164,272.645683 1288.3629,291 1258.32214,291 C1217.69115,291 1193.89233,262.755396 1193.89233,218.05036 C1193.89233,186.883094 1194.21962,156.464029 1195.36515,126.044964 L1170,126.044964 L1170,96" id="Fill-38" fill="#C51E3C"></path>
        <path d="M1419.40067,257.01799 L1441.00612,257.01799 L1441.77857,126.448909 L1415,126.448909 L1415,96.3967378 L1482.90616,96.3967378 C1482.90616,109.259535 1481.73577,122.449748 1479.1609,138.586711 L1479.98018,138.586711 C1487.61113,114.007076 1508.93568,92 1547.04365,92 C1591.84627,92 1613.4283,120.274766 1613.4283,165.692132 C1613.4283,196.141881 1612.30472,226.591629 1611.97701,257.01799 L1637,257.01799 L1637,287 L1549.22058,287 L1549.22058,257.01799 L1570.89625,257.01799 C1571.27077,229.117414 1572.39435,200.889422 1572.39435,173.03562 C1572.39435,146.234229 1559.91797,126.448909 1533.81822,126.448909 C1505.61177,126.448909 1484.31063,148.876949 1483.58499,184.448429 L1482.1337,257.01799 L1507.8121,257.01799 L1507.8121,287 L1419.40067,287 L1419.40067,257.01799" id="Fill-39" fill="#C51E3C"></path>
        <path d="M1706.58354,0 C1722.31543,0 1734.84007,12.454085 1734.84007,28.2495098 C1734.84007,43.9982026 1722.31543,56.4289216 1706.58354,56.4289216 C1690.78142,56.4289216 1678.3036,43.9982026 1678.3036,28.2495098 C1678.3036,12.454085 1690.78142,0 1706.58354,0 Z M1660.34771,256.044771 L1685.30335,256.044771 L1685.98226,125.59232 L1657,125.59232 L1657,95.5669935 L1727.06777,95.5669935 L1726.41227,256.044771 L1752,256.044771 L1752,286 L1660.34771,286 L1660.34771,256.044771 L1660.34771,256.044771 Z" id="Fill-40" fill="#C51E3C"></path>
        <path d="M1769,95.8412467 L1798.09091,95.8412467 L1798.84164,52.9484416 L1840.31965,50 L1838.8651,95.8412467 L1893.64516,95.8412467 L1893.64516,125.910671 L1838.8651,125.910671 C1838.5132,156.3545 1838.09091,186.470725 1838.09091,215.042528 C1838.09091,249.90902 1845.8563,258.660744 1864.90616,258.660744 C1876.00293,258.660744 1887.78006,254.986892 1897,251.359841 L1895.56891,281.429265 C1885.22287,286.553937 1869.36364,291 1853.22287,291 C1812.75367,291 1796.98827,275.204777 1796.98827,232.218371 C1796.98827,207.765026 1797.69208,158.975337 1798.09091,125.910671 L1769,125.910671 L1769,95.8412467" id="Fill-41" fill="#C51E3C"></path>
        <path d="M1918,96 L2005.42972,96 L2005.42972,126.049295 L1984.08768,126.049295 L2020.77443,223.91412 C2024.45248,233.431679 2026.63119,244.071702 2029.23159,252.513566 L2029.9344,252.513566 C2031.80857,244.071702 2035.13521,233.431679 2038.39157,223.91412 L2072.17336,126.049295 L2047.24699,126.049295 L2047.24699,96 L2128,96 L2128,126.049295 L2108.88353,126.049295 L2050.97189,285.485945 C2044.69344,302.743828 2031.80857,338.24175 2020.77443,352.599935 C2003.5087,374.97906 1979.70683,383 1955.08501,383 C1944.75368,383 1934.8909,381.152611 1929.01071,378.977838 L1929.01071,346.706999 C1934.8909,349.279312 1947.37751,350.682392 1955.81124,350.682392 C1974.10776,350.682392 1991.77175,343.035607 2007.60843,300.84967 L2009.03748,296.874277 L1938.56894,126.049295 L1918,126.049295 L1918,96" id="Fill-42" fill="#C51E3C"></path>
        <polyline id="Fill-43" fill="#1A1919" points="139 386 157.032426 386 157.032426 428.805195 205.920857 428.805195 205.920857 386 224 386 224 489 205.920857 489 205.920857 445.561176 157.032426 445.561176 157.032426 489 139 489 139 386"></polyline>
        <path d="M349.16427,438.268561 L349.16427,438.03503 C349.16427,418.09143 334.711111,401.580745 314.336819,401.580745 C294.032462,401.580745 279.882353,417.787839 279.882353,437.684732 L279.882353,438.03503 C279.882353,457.90857 294.335512,474.442609 314.639869,474.442609 C334.99085,474.442609 349.16427,458.212161 349.16427,438.268561 Z M261,438.268561 L261,438.03503 C261,409.170522 283.239216,385 314.639869,385 C346.063834,385 368,408.866931 368,437.684732 L368,438.03503 C368,466.852831 345.784096,491 314.336819,491 C282.912854,491 261,467.156422 261,438.268561 L261,438.268561 Z" id="Fill-44" fill="#1A1919"></path>
        <path d="M403,445.928668 L403,387 L421.082513,387 L421.082513,445.228802 C421.082513,464.265141 430.896726,474.436519 447.08198,474.436519 C463.103274,474.436519 472.94091,464.825034 472.94091,445.928668 L472.94091,387 L491,387 L491,445.088829 C491,475.672948 473.667022,491 446.777482,491 C420.075326,491 403,475.672948 403,445.928668" id="Fill-45" fill="#1A1919"></path>
        <path d="M523,474.491803 L533.920859,461.599911 C543.806119,470.147541 553.69138,475.008418 566.565755,475.008418 C577.745513,475.008418 584.853486,469.818786 584.853486,462.022596 L584.853486,461.717324 C584.853486,454.343819 580.687555,450.398759 561.552515,445.98405 C539.546043,440.653522 527.142395,434.172353 527.142395,415.198494 L527.142395,414.869739 C527.142395,397.187417 541.946749,385 562.446896,385 C577.486614,385 589.419535,389.555605 599.893204,397.962339 L590.149162,411.676119 C580.85231,404.725299 571.555457,401.062029 562.140924,401.062029 C551.478964,401.062029 545.288909,406.486486 545.288909,413.319894 L545.288909,413.554719 C545.288909,421.515286 550.019712,425.061143 569.860841,429.73416 C591.655487,435.08817 603,442.88436 603,459.956136 L603,460.261409 C603,479.564023 587.795528,491 566.095028,491 C550.325684,491 535.403648,485.599025 523,474.491803" id="Fill-46" fill="#1A1919"></path>
        <polygon id="Fill-47" fill="#1A1919" points="639.645 489 657.355 489 657.355 386 639.645 386"></polygon>
        <polyline id="Fill-48" fill="#1A1919" points="700 386 716.636601 386 771.339608 457.224653 771.339608 386 789 386 789 489 773.945621 489 717.637124 415.780588 717.637124 489 700 489 700 386"></polyline>
        <path d="M826,438.268561 L826,438.03503 C826,409.310641 848.013632,385 878.907498,385 C896.808179,385 907.791626,389.974223 918.307692,398.895131 L906.880234,412.533377 C898.9815,405.807667 891.22298,401.580745 878.159688,401.580745 C859.277507,401.580745 844.90555,418.09143 844.90555,437.684732 L844.90555,438.03503 C844.90555,459.099581 858.833496,474.629434 879.795521,474.629434 C889.493671,474.629434 898.257059,471.50011 904.566699,466.852831 L904.566699,447.656532 L878.323272,447.656532 L878.323272,431.986561 L922,431.986561 L922,475.049791 C911.857838,483.69046 897.345667,491 879.234664,491 C847.148978,491 826,468.183961 826,438.268561" id="Fill-49" fill="#1A1919"></path>
        <polyline id="Fill-50" fill="#1A1919" points="1019 386 1035.78683 386 1091.13166 457.224653 1091.13166 386 1109 386 1109 489 1093.71787 489 1036.89185 415.780588 1036.89185 489 1019 489 1019 386"></polyline>
        <polyline id="Fill-51" fill="#1A1919" points="1150 386 1226.27358 386 1226.27358 402.192755 1168.09008 402.192755 1168.09008 428.969469 1219.57182 428.969469 1219.57182 445.162224 1168.09008 445.162224 1168.09008 472.807245 1227 472.807245 1227 489 1150 489 1150 386"></polyline>
        <polyline id="Fill-52" fill="#1A1919" points="1287.50561 402.755981 1255 402.755981 1255 386 1338 386 1338 402.755981 1305.63419 402.755981 1305.63419 489 1287.50561 489 1287.50561 402.755981"></polyline>
        <polyline id="Fill-53" fill="#1A1919" points="1364 386.281588 1383.4757 386.281588 1408.02491 462.662455 1433.15862 386 1448.35575 386 1473.65312 462.662455 1498.08542 386.281588 1517 386.281588 1481.27506 490 1465.72723 490 1440.54676 416.059567 1415.24939 490 1399.79508 490 1364 386.281588"></polyline>
        <path d="M1629.12587,438.268561 L1629.12587,438.03503 C1629.12587,418.09143 1614.65571,401.580745 1594.26699,401.580745 C1573.97147,401.580745 1559.80422,417.787839 1559.80422,437.684732 L1559.80422,438.03503 C1559.80422,457.90857 1574.29769,474.442609 1594.63981,474.442609 C1614.98193,474.442609 1629.12587,458.212161 1629.12587,438.268561 Z M1541,438.268561 L1541,438.03503 C1541,409.170522 1563.20623,385 1594.63981,385 C1626.07339,385 1648,408.866931 1648,437.684732 L1648,438.03503 C1648,466.852831 1625.74717,491 1594.26699,491 C1562.94991,491 1541,467.156422 1541,438.268561 L1541,438.268561 Z" id="Fill-54" fill="#1A1919"></path>
        <path d="M1721.41063,437.065846 C1734.25282,437.065846 1742.37842,430.307131 1742.37842,419.887446 L1742.37842,419.535429 C1742.37842,408.52905 1734.53301,402.4509 1721.24718,402.4509 L1694.97907,402.4509 L1694.97907,437.065846 L1721.41063,437.065846 Z M1677,386 L1722.69485,386 C1735.56039,386 1745.67069,389.825245 1752.27858,396.325815 C1757.64895,401.887674 1760.80113,409.514696 1760.80113,418.549784 L1760.80113,418.807929 C1760.80113,435.704716 1750.64412,445.889724 1736.30757,449.996582 L1764,489 L1742.75201,489 L1717.53462,453.117794 L1694.97907,453.117794 L1694.97907,489 L1677,489 L1677,386 L1677,386 Z" id="Fill-55" fill="#1A1919"></path>
        <polyline id="Fill-56" fill="#1A1919" points="1798 386 1816.02676 386 1816.02676 437.769879 1864.83946 386 1887.08027 386 1844.40134 430.307131 1889 489 1867.08696 489 1832.04013 442.651173 1816.02676 459.125541 1816.02676 489 1798 489 1798 386"></polyline>
      </g>
      <g id="Group-8">
        <path d="M662.657404,296.911077 L529.920749,395.476286 L662.277451,494.763168 L804,494.706194 L804,296.911077 L662.657404,296.911077 Z M274.041256,395.476286 L141.380591,296.911077 L0,296.911077 L0,494.706194 L141.684554,494.763168 L274.041256,395.476286 Z M501.519246,0 L303.639612,0 L303.639612,141.656628 L402.864394,273.95051 L501.519246,141.333775 L501.519246,0 Z M192.332317,45.902141 L52.4335436,185.754589 L144.591196,277.938698 L290.436237,326.784501 L171.244914,166.269443 L333.465939,284.224842 L294.653718,148.094702 L192.332317,45.902141 Z M633.382009,166.269443 L514.15269,326.784501 L658.572907,280.103714 L752.972283,185.754589 L612.997519,45.902141 L514.798611,143.973575 L471.122989,284.224842 L633.382009,166.269443 Z M514.15269,475.505919 L633.382009,636.020977 L471.122989,518.122553 L517.876232,651.214073 L612.750549,746 L752.668321,606.10957 L657.395052,510.86785 L514.15269,475.505919 Z M290.436237,475.505919 L142.881406,515.387796 L52.1485787,606.10957 L192.047352,746 L288.118523,649.998625 L333.465939,518.122553 L171.244914,636.020977 L290.436237,475.505919 L290.436237,475.505919 Z" id="Fill-57" fill="#C51E3C"></path>
        <path d="M402.695853,522 L304,654.621698 L304,796 L376.082949,796 L376.082949,735.121664 C376.082949,735.121664 374.60023,700.494142 402.334677,699.506412 L402.334677,699.449428 C402.52477,699.449428 402.733871,699.468423 402.923963,699.506412 C403.076037,699.468423 403.285138,699.449428 403.49424,699.449428 L403.49424,699.506412 C431.228687,700.494142 429.726959,735.121664 429.726959,735.121664 L429.726959,796 L502,796 L502,654.317782 L402.695853,522" id="Fill-58" fill="#1A1919"></path>
      </g>
    </g>
  </g>
</svg>
