<?xml version="1.0" encoding="UTF-8"?>
<svg width="1200pt" height="1200pt" version="1.1" viewBox="0 0 1200 1200" xmlns="http://www.w3.org/2000/svg">
 <path d="m1124.8 449.18c-0.09375-1.9492-0.46875-3.8242-1.1445-5.6055-0.14844-0.41406-0.26172-0.84375-0.42969-1.2578-0.86328-1.9141-2.0234-3.6562-3.5078-5.1758-0.32031-0.35547-0.69531-0.60156-1.0312-0.91797-0.69531-0.61719-1.293-1.293-2.082-1.8203l-198-132.05c-45.785-132.09-171.15-227.34-318.64-227.34-147.51 0-272.87 95.27-318.68 227.36l-197.98 132.04c-0.78906 0.52344-1.3867 1.1992-2.082 1.8203-0.35547 0.32031-0.71094 0.5625-1.0312 0.91797-1.4609 1.5391-2.6445 3.2812-3.5078 5.1758-0.1875 0.41406-0.28125 0.82422-0.42969 1.2578-0.65625 1.7812-1.0508 3.6562-1.1445 5.6055 0 0.28125-0.14844 0.52344-0.14844 0.82422v525c0 10.352 8.3984 18.75 18.75 18.75h412.5v37.5c0 51.695 42.055 93.75 93.75 93.75s93.75-42.055 93.75-93.75v-37.5h412.5c10.352 0 18.75-8.3984 18.75-18.75v-525c0-0.30078-0.14844-0.54297-0.16797-0.82422zm-80.496-17.926h-107.81c0.35937-6.2422 0.97656-12.43 0.97656-18.75 0-19.07-1.9688-37.648-5.0234-55.855zm-111.92 37.5h96.938l-112.27 58.199c6.7695-18.711 11.941-38.117 15.336-58.199zm-332.42-356.25c165.41 0 300 134.59 300 300s-134.59 300-300 300-300-134.59-300-300 134.57-300 300-300zm18.75 636.54v38.457h-37.5v-38.457c6.2422 0.35547 12.414 0.95703 18.75 0.95703 6.3203 0 12.508-0.60156 18.75-0.95703zm-335.85-222.09-112.25-58.199h96.918c3.3945 20.062 8.5703 39.488 15.336 58.199zm-15.391-170.3c-3.0586 18.207-5.0078 36.785-5.0078 55.855 0 6.3203 0.60156 12.508 0.95703 18.75h-107.79zm257.49 430.86c-10.352 0-18.75 8.3984-18.75 18.75v150h-393.75v-475.41l196.57 101.93c49.594 84.395 134.64 145.27 234.68 162.15v42.582zm131.25 243.75c0 31.012-25.238 56.25-56.25 56.25s-56.25-25.238-56.25-56.25v-56.211-0.039062-0.039062-149.96h112.5zm431.25-75h-393.75v-150c0-10.352-8.3984-18.75-18.75-18.75h-18.75v-42.582c100.01-16.895 185.06-77.758 234.64-162.13l196.61-101.94zm-813.75-146.25c8.2891 6.207 9.957 17.961 3.75 26.25l-56.25 75c-3.2617 4.3516-8.25 7.0703-13.668 7.4453-0.44922 0.035157-0.90234 0.054688-1.332 0.054688-4.9492 0-9.7305-1.9492-13.258-5.4922l-37.5-37.5c-7.332-7.332-7.332-19.18 0-26.512 7.332-7.332 19.18-7.332 26.512 0l22.219 22.219 43.277-57.715c6.207-8.2695 17.945-9.9766 26.25-3.75zm645 15c0-10.352 8.3984-18.75 18.75-18.75h93.75c10.352 0 18.75 8.3984 18.75 18.75s-8.3984 18.75-18.75 18.75h-93.75c-10.367 0-18.75-8.3984-18.75-18.75zm131.25 75c0 10.352-8.3984 18.75-18.75 18.75h-187.5c-10.352 0-18.75-8.3984-18.75-18.75s8.3984-18.75 18.75-18.75h187.5c10.352 0 18.75 8.3984 18.75 18.75zm-655.22-339.38c-0.52344 5.2695 1.1992 10.52 4.7422 14.457 3.5625 3.918 8.6094 6.168 13.914 6.168h373.12c5.3047 0 10.352-2.25 13.914-6.168 3.543-3.918 5.2695-9.168 4.7422-14.457-6.5234-65.102-43.367-122.46-98.25-155.68 26.57-27.078 43.031-64.109 43.031-104.95 0-82.707-67.293-150-150-150s-150 67.293-150 150c0 40.836 16.445 77.887 43.012 104.96-54.879 33.207-91.723 90.582-98.23 155.66zm92.719-260.62c0-62.043 50.457-112.5 112.5-112.5s112.5 50.457 112.5 112.5-50.457 112.5-112.5 112.5-112.5-50.457-112.5-112.5zm38.117 130.09c21.957 12.602 47.309 19.914 74.383 19.914s52.426-7.3125 74.383-19.93c45.824 22.445 78.957 64.18 90.188 113.68h-329.12c11.215-49.48 44.344-91.238 90.168-113.66z"/>
</svg>
