<?xml version="1.0" encoding="UTF-8"?>
<svg width="1200pt" height="1200pt" version="1.1" viewBox="0 0 1200 1200" xmlns="http://www.w3.org/2000/svg">
 <g>
  <path d="m1099.2 458.4c0-236.4-192-428.4-428.4-428.4-236.4 0-428.4 192-428.4 428.4 0 30 3.6016 58.801 8.3984 86.398-84 0-152.4 68.398-152.4 152.4v177.6c0 84 68.398 152.4 152.4 152.4h26.398c-1.1992 20.398-6 43.199-15.602 68.398-8.3984 21.602-2.3984 46.801 15.602 61.199 10.801 8.3984 22.801 13.199 36 13.199 9.6016 0 18-2.3984 27.602-7.1992 61.199-34.801 112.8-91.199 147.6-136.8h61.199c80.398 0 146.4-62.398 152.4-141.6 222-15.59 397.2-200.39 397.2-425.99zm-117.6 190.8c-28.801-12-58.801-22.801-88.801-31.199 8.3984-40.801 14.398-84 15.602-129.6h126c-4.8008 60-24.004 114-52.801 160.8zm0-382.8c28.801 48 48 102 52.801 160.8h-126c-2.3984-45.602-7.1992-88.801-15.602-129.6 30.004-9.5977 60.004-19.199 88.805-31.199zm-39.602-52.797c-21.602 8.3984-43.199 15.602-67.199 21.602-13.199-42-31.199-79.199-51.602-109.2 45.602 21.598 86.402 51.598 118.8 87.598zm-238.8-114c42 18 84 70.801 110.4 150-36 6-72 9.6016-110.4 12zm0 225.6c43.199-1.1992 86.398-6 127.2-13.199 7.1992 34.801 13.199 73.199 14.398 115.2h-141.6zm0 164.4h141.6c-1.1992 42-7.1992 80.398-14.398 115.2-40.801-7.1992-84-12-127.2-13.199zm-200.4 54c-2.3984-18-3.6016-36-4.8008-55.199h141.6v82.801c-25.199-18-55.199-28.801-88.801-28.801l-48-0.003906zm136.8-117.6h-141.6c1.1992-42 7.1992-80.398 14.398-115.2 40.801 7.1992 84 12 127.2 13.199zm0-326.4v162c-38.398-1.1992-74.398-6-110.4-12 27.598-78 68.398-132 110.4-150zm-120 26.398c-20.398 31.199-38.398 68.398-51.602 109.2-22.801-6-45.602-13.199-67.199-21.602 32.398-35.996 73.199-65.996 118.8-87.598zm-158.4 140.4c28.801 12 58.801 22.801 90 31.199-9.6016 40.801-14.398 84-15.602 129.6h-127.2c4.8008-58.801 24-114 52.801-160.8zm73.199 223.2c1.1992 19.199 2.3984 37.199 3.6016 55.199h-120c-4.8008-18-8.3984-36-9.6016-55.199zm205.2 384c0 49.199-39.602 88.801-88.801 88.801h-76.801c-9.6016 0-19.199 4.8008-25.199 13.199-22.801 31.199-66 84-117.6 120 12-40.801 13.199-76.801 12-102-1.1992-16.801-14.398-30-31.199-30h-58.801c-49.199 0-88.801-39.602-88.801-88.801v-178.8c0-49.199 39.602-88.801 88.801-88.801h297.6c49.199 0 88.801 39.602 88.801 88.801zm63.598-57.602v-120-1.1992-40.801c38.398 1.1992 74.398 4.8008 110.4 12-26.398 78-68.398 132-110.4 150zm120-26.398c20.398-31.199 38.398-67.199 51.602-109.2 22.801 6 45.602 13.199 67.199 21.602-32.398 35.996-73.199 65.996-118.8 87.598z"/>
  <path d="m522 691.2h-240c-18 0-31.199 14.398-31.199 31.199 0 16.801 14.398 31.199 31.199 31.199h240c18 0 31.199-14.398 31.199-31.199 0-16.797-14.398-31.199-31.199-31.199z"/>
  <path d="m522 811.2h-240c-18 0-31.199 14.398-31.199 31.199 0 16.801 14.398 31.199 31.199 31.199h240c18 0 31.199-14.398 31.199-31.199 0-16.797-14.398-31.199-31.199-31.199z"/>
 </g>
</svg>
