<?xml version="1.0" encoding="UTF-8"?>
<svg width="1200pt" height="1200pt" version="1.1" viewBox="0 0 1200 1200" xmlns="http://www.w3.org/2000/svg">
 <path d="m72.898 1098.5c-21.531 0-41.426-11.484-52.191-30.133-10.766-18.645-10.766-41.617 0-60.266 10.766-18.645 30.66-30.129 52.191-30.129h1054.2c21.531 0 41.426 11.484 52.191 30.129 10.766 18.648 10.766 41.621 0 60.266-10.766 18.648-30.66 30.133-52.191 30.133zm0-438.24c-21.531 0-41.426-11.488-52.191-30.133-10.766-18.645-10.766-41.621 0-60.266 10.766-18.645 30.66-30.133 52.191-30.133h1054.2c21.531 0 41.426 11.488 52.191 30.133 10.766 18.645 10.766 41.621 0 60.266-10.766 18.645-30.66 30.133-52.191 30.133zm0-438.24v-0.003906c-21.531 0-41.426-11.484-52.191-30.129-10.766-18.648-10.766-41.621 0-60.266 10.766-18.648 30.66-30.133 52.191-30.133h1054.2c21.531 0 41.426 11.484 52.191 30.133 10.766 18.645 10.766 41.617 0 60.266-10.766 18.645-30.66 30.129-52.191 30.129z"/>
</svg>
