<?xml version="1.0" encoding="UTF-8"?>
<svg width="1200pt" height="1200pt" version="1.1" viewBox="0 0 1200 1200" xmlns="http://www.w3.org/2000/svg">
 <g>
  <path d="m1016.4 179.29c-4.4414-15.094-15.168-27.734-29.418-34.652l-285.77-138.39c-27.336-11.887-59.062-6.4883-80.926 13.727l-107.14 99.469c-28.707 26.586-32.043 71.344-7.6133 101.91l85.086 106.37c24.488 30.617 67.555 37.312 100.16 15.543l56.793-37.875 39.488 39.469c-2.1172 40.273-11.793 217.22-23.344 315.86-33.785-15.242-70.461-23.211-107.49-23.211-68.852 0-134.77 27.242-183.77 75.395-60.242-56.23-140.7-82.949-223.67-73.555-129 14.527-232.91 118.7-247.07 247.67-8.9062 81.168 15.957 159.09 70.012 219.39 53.309 59.492 129.68 93.598 209.5 93.598 81.562 0 157.33-34.555 210.8-95.477 46.594 37.5 104.21 57.957 164.81 57.957h0.039062c22.18-0.78516 543.09-21.938 543.09-243.73 0-106.78-140.51-592.99-183.58-739.46zm-360.17 945.71c-57.113 0-111.68-21.637-153.64-60.957-3.8633-3.6172-8.9805-5.5508-14.383-5.0078-5.2891 0.42969-10.145 3.0938-13.352 7.3125-46.648 61.109-117.22 96.152-193.63 96.152-69.188 0-135.38-29.57-181.57-81.133-46.855-52.258-68.383-119.85-60.656-190.26 12.262-111.7 102.26-201.92 213.99-214.48 9.4492-1.0859 18.863-1.5938 28.219-1.5938 66.523 0 129.3 26.793 175.89 75.562 13.48 14.082 25.539 29.457 35.27 46.312 3.4883 5.9844 9.7852 9.3398 16.254 9.3398 3.1875 0 6.4141-0.80469 9.375-2.5312 8.9609-5.1758 12.039-16.648 6.8438-25.613-7.707-13.332-16.633-25.895-26.398-37.781 42.055-41.566 98.57-65.324 157.78-65.324 39 0 77.551 10.445 111.66 30.02 27.789 15.957 52.367 37.648 71.117 63.75 3.6758 5.082 9.4141 7.8008 15.242 7.8008 3.7891 0 7.6133-1.1641 10.93-3.5234 8.3984-6.0391 10.312-17.758 4.2734-26.176-18.992-26.418-43.105-49.031-70.332-66.77 14.008-107.42 25.332-331.8 25.82-341.66 0.26172-5.2891-1.7266-10.445-5.4766-14.195l-56.25-56.25c-6.3008-6.3008-16.219-7.3125-23.664-2.3438l-69.582 46.406c-16.312 10.836-37.836 7.5195-50.082-7.7812l-85.086-106.37c-12.207-15.262-10.539-37.668 3.8242-50.961l107.16-99.469c10.914-10.125 26.812-12.805 39.77-7.1641l285.07 138.05c4.8203 2.3438 8.3047 6.4297 9.7891 11.492 84.008 285.64 182.07 647.93 182.07 728.89 0 154.27-365.93 201.19-506.25 206.25z"/>
  <path d="m562.5 525v-75c0-10.367-8.3984-18.75-18.75-18.75s-18.75 8.3828-18.75 18.75v75c0 10.367 8.3984 18.75 18.75 18.75s18.75-8.3828 18.75-18.75z"/>
  <path d="m455.49 575.76c3.6562 3.6562 8.457 5.4922 13.258 5.4922s9.6016-1.8359 13.258-5.4922c7.332-7.332 7.332-19.18 0-26.512l-37.5-37.5c-7.332-7.332-19.18-7.332-26.512 0-7.332 7.332-7.332 19.18 0 26.512z"/>
  <path d="m632.01 575.76 37.5-37.5c7.332-7.332 7.332-19.18 0-26.512-7.332-7.332-19.18-7.332-26.512 0l-37.5 37.5c-7.332 7.332-7.332 19.18 0 26.512 3.6523 3.6562 8.4531 5.4922 13.254 5.4922s9.6016-1.8359 13.258-5.4922z"/>
 </g>
</svg>
