<?xml version="1.0" encoding="UTF-8"?>
<svg width="1200pt" height="1200pt" version="1.1" viewBox="0 0 1200 1200" xmlns="http://www.w3.org/2000/svg">
 <g>
  <path d="m873.33 1116h-534.66c-116 0-212-94.668-212-212 0-45.332 14.668-89.332 41.332-125.33-2.668-10.668-2.668-21.332-2.668-30.668 0-82.668 68-150.67 150.67-150.67h1.332c20-86.668 97.332-150.67 188-150.67 48 0 93.332 17.332 128 49.332 17.332-6.668 34.668-10.668 53.332-10.668 49.332 0 94.668 24 121.33 65.332h10.668c80 0 146.67 65.332 146.67 146.67 0 5.332 0 10.668-1.332 16 73.332 34.668 120 108 120 190.67 1.332 117.34-93.332 212-210.67 212zm-557.33-480c-61.332 0-112 50.668-112 112 0 9.332 1.332 20 4 30.668 1.332 5.332 0 12-4 17.332-25.332 30.668-38.668 68-38.668 108 0 96 77.332 173.33 173.33 173.33h534.67c96 0 173.33-77.332 173.33-173.33 0-72-44-134.67-110.67-161.33-9.332-4-13.332-13.332-12-22.668 1.332-8 2.668-16 2.668-24 0-60-48-108-108-108-5.332 0-10.668 0-17.332 1.332-8 1.332-16-2.668-20-9.332-18.668-34.668-54.668-56-94.668-56-17.332 0-33.332 4-48 12-8 4-16 2.668-22.668-4-29.332-30.668-68-46.668-110.67-46.668-77.332 0-142.67 57.332-153.33 134.67 0 5.332-2.668 9.332-8 13.332-4 2.668-9.332 4-14.668 4-3.9961-1.332-9.3281-1.332-13.328-1.332z"/>
  <path d="m780 761.33c-16-4-32-4-46.668-2.668-21.332-32-54.668-56-94.668-66.668h-1.332c-76-18.668-153.33 18.668-186.67 86.668h-1.332c-69.332-17.332-138.67 25.332-156 94.668-2.668 9.332 2.668 17.332 12 20s17.332-2.668 20-12c13.332-52 65.332-82.668 116-70.668 20 5.332 37.332 16 49.332 30.668 5.332 6.668 16 8 22.668 1.332 6.668-5.332 8-16 1.332-22.668-9.332-10.668-21.332-21.332-34.668-28 28-52 88-81.332 148-66.668 28 6.668 52 22.668 69.332 44-16 6.668-29.332 17.332-41.332 29.332-6.668 6.668-5.332 17.332 1.332 24 6.668 6.668 17.332 4 24-2.668 22.668-24 56-36 89.332-28v1.332c1.332 0 2.668 1.332 4 1.332h-2.668c49.332 12 78.668 62.668 66.668 112-2.668 9.332 2.668 17.332 12 20 9.332 2.668 17.332-2.668 20-12 18.672-67.988-22.66-135.99-90.66-153.32z"/>
  <path d="m600 658.67v42.668c6.668 0 12 0 18.668 1.332v-44z"/>
  <path d="m720 182.67c0 58.172-47.16 105.33-105.33 105.33-58.176 0-105.34-47.16-105.34-105.33 0-58.176 47.16-105.34 105.34-105.34 58.172 0 105.33 47.16 105.33 105.34"/>
  <path d="m600 702.67v-42.668h18.668v44c6.668 1.332 12 1.332 18.668 2.668h1.332c38.668 9.332 69.332 32 92 62.668v-302.67h22.668v193.34c0 57.332 82.668 57.332 82.668 0v-218.66c1.332-69.332-53.332-125.33-121.33-125.33h-202.67-2.668-2.668c-68 0-121.33 56-121.33 125.33v218.66c0 57.332 82.668 57.332 82.668 0v-193.34h20v277.33c30.664-28 70.664-42.668 112-41.332z"/>
 </g>
</svg>
