<?xml version="1.0" encoding="UTF-8"?>
<svg id="Layer_2" data-name="Layer 2" xmlns="http://www.w3.org/2000/svg" viewBox="0 0 630.27 584.82">
  <defs>
    <style>
      .cls-1, .cls-2 {
        fill: #939598;
      }

      .cls-3 {
        fill: #f26522;
      }

      .cls-4 {
        stroke: #231f20;
        stroke-miterlimit: 10;
        stroke-width: 23px;
      }

      .cls-4, .cls-5 {
        fill: none;
      }

      .cls-6 {
        fill: #92278f;
      }

      .cls-2 {
        fill-rule: evenodd;
      }

      .cls-7 {
        fill: #ed2029;
      }

      .cls-8 {
        fill: #00a651;
      }

      .cls-9 {
        fill: #ffde17;
      }

      .cls-10 {
        fill: #1c75bc;
      }
    </style>
  </defs>
  <g id="Layer_1-2" data-name="Layer 1">
    <ellipse class="cls-4" cx="315.14" cy="292.41" rx="303.64" ry="280.91"/>
    <ellipse class="cls-4" cx="315.14" cy="292.41" rx="204.4" ry="196.82"/>
    <circle class="cls-4" cx="315.14" cy="292.41" r="117.36"/>
    <circle class="cls-6" cx="197.77" cy="78.77" r="25.45"/>
    <circle class="cls-8" cx="320.26" cy="534.23" r="25.45"/>
    <circle class="cls-9" cx="110.74" cy="376.95" r="25.45"/>
    <circle class="cls-3" cx="466.99" cy="351.5" r="25.45"/>
    <circle class="cls-10" cx="441.53" cy="53.32" r="25.45"/>
    <g>
      <path class="cls-5" d="m345.34,33.44c-37.44,74.71-73.2,150.31-107.17,226.73l178.17,79.2c32.72-73.62,67.2-146.49,103.32-218.58l-174.32-87.35Z"/>
      <path class="cls-2" d="m359.84,244.41l-17.72-8.14c-6.37,13.89-12.69,27.79-18.94,41.73l17.79,7.98c6.22-13.89,12.53-27.74,18.87-41.57Z"/>
      <path class="cls-2" d="m394.59,170.26l-17.59-8.41c-6.59,13.78-13.12,27.59-19.58,41.43l17.66,8.26c6.44-13.79,12.95-27.55,19.51-41.28Z"/>
      <path class="cls-2" d="m430.35,96.89l-17.46-8.68c-6.8,13.68-13.53,27.39-20.21,41.12l17.54,8.53c6.66-13.68,13.36-27.35,20.14-40.98Z"/>
    </g>
    <g>
      <rect class="cls-5" x="218.59" y="292.55" width="194.98" height="216.53" transform="translate(-15.27 12.53) rotate(-2.22)"/>
      <rect class="cls-1" x="306.39" y="308.5" width="19.5" height="40.19" transform="translate(-12.48 12.48) rotate(-2.22)"/>
      <rect class="cls-1" x="309.18" y="380.53" width="19.5" height="40.19" transform="translate(-15.26 12.64) rotate(-2.22)"/>
      <rect class="cls-1" x="311.96" y="452.32" width="19.5" height="40.19" transform="translate(-18.04 12.8) rotate(-2.22)"/>
    </g>
    <g>
      <polygon class="cls-5" points="165.55 459.02 340.99 383.59 264.44 204.27 88.07 280.1 165.55 459.02"/>
      <polygon class="cls-2" points="254.35 307.22 262.03 325.14 294.67 311.11 287.01 293.17 254.35 307.22"/>
      <polygon class="cls-2" points="195.78 332.4 203.49 350.31 236.13 336.28 228.43 318.36 195.78 332.4"/>
      <polygon class="cls-2" points="137.4 357.5 145.14 375.39 177.78 361.36 170.05 343.46 137.4 357.5"/>
    </g>
    <g>
      <path class="cls-5" d="m123.62,139.33c32.05,68.99,65.66,137.29,100.88,204.79l172.86-90.2c-33.8-64.79-66.1-130.4-96.91-196.73l-176.84,82.14Z"/>
      <path class="cls-2" d="m290.53,244.25l-17.4,8.81c6.28,12.38,12.59,24.75,18.98,37.08l17.32-8.96c-6.36-12.28-12.65-24.59-18.9-36.93Z"/>
      <path class="cls-2" d="m257.43,177.61l-17.53,8.54c6.08,12.48,12.21,24.94,18.4,37.37l17.46-8.69c-6.17-12.38-12.28-24.78-18.33-37.22Z"/>
      <path class="cls-2" d="m225.45,110.7l-17.66,8.28c5.89,12.57,11.84,25.11,17.83,37.64l17.59-8.42c-5.97-12.48-11.9-24.97-17.76-37.49Z"/>
    </g>
    <g>
      <path class="cls-5" d="m285.05,388.65c44.38,16.12,89.01,31.57,133.86,46.35l61.01-185.19c-42.98-14.16-85.76-28.97-128.29-44.42l-66.57,183.26Z"/>
      <polygon class="cls-2" points="417.47 324.48 411.23 342.95 435.71 351.15 441.85 332.64 417.47 324.48"/>
      <polygon class="cls-2" points="373.87 309.49 367.44 327.89 391.83 336.34 398.16 317.9 373.87 309.49"/>
      <polygon class="cls-2" points="330.56 294.11 323.94 312.45 348.25 321.15 354.77 302.77 330.56 294.11"/>
    </g>
    <path class="cls-7" d="m316.07,139.39c-19.52,0-35.34,19.2-35.34,42.86,0,1.22.06,2.42.13,3.62.03.42.08.87.12,1.28.06.72.14,1.43.24,2.14.08.56.15,1.12.25,1.67.06.38.14.76.21,1.14,3.21,16.96,14.1,30.56,22.49,53.84,2.51,6.97,4.7,14.43,6.49,21.26l5.41,23.7,5.41-23.7c1.8-6.82,3.98-14.29,6.49-21.26,8.39-23.29,19.28-36.89,22.47-53.84.08-.38.14-.76.21-1.14.09-.55.17-1.1.25-1.67.09-.71.18-1.42.25-2.14.04-.41.09-.86.11-1.28.09-1.2.14-2.39.14-3.62,0-23.66-15.82-42.86-35.34-42.86h0Zm0,62.23c-8.82,0-15.97-8.68-15.97-19.38s7.15-19.36,15.97-19.36,15.98,8.67,15.98,19.36c0,10.7-7.15,19.38-15.98,19.38Z"/>
  </g>
</svg>