<?xml version="1.0" encoding="UTF-8"?>
<svg width="1200pt" height="1200pt" version="1.1" viewBox="0 0 1200 1200" xmlns="http://www.w3.org/2000/svg">
 <g>
  <path d="m987.24 552.72c-18.359-3.6016-37.199-4.3203-57.121-5.1602-8.7617-0.35938-17.762-0.71875-27-1.3203 0.60156-2.3984 1.4414-5.0391 2.1602-7.6797 2.1602-7.4414 4.5586-15.84 5.7617-24.359 1.5586-11.16 3.6016-22.441 5.5195-33.359 5.0391-28.801 10.32-58.68 9.6016-87.961-0.60156-26.398-14.879-50.16-39.121-65.039-27.84-17.16-63.602-18.961-93.238-4.8008-22.32 10.68-42.359 25.559-63.48 41.398-9 6.7188-18.121 13.559-27.719 20.281 0-7.9219 0.35938-15.961 0.60156-23.762 0.60156-19.32 1.3203-39.359-1.4414-58.441-0.96094-6.7188-1.8008-13.68-2.6406-20.762-3.8398-31.68-7.9219-64.32-23.879-88.559-30.121-45.602-55.922-66.84-81.238-66.84-23.641 0-47.641 18.961-73.559 57.961-15.961 24-27.48 51-38.762 77.16-4.8008 11.281-9.4805 21.961-14.398 32.398-4.3203-3.6016-8.7617-7.6797-13.32-11.879-12-11.039-24.359-22.441-39.121-30-43.559-21.961-82.199-26.879-111.72-14.16-25.801 11.16-44.52 35.398-55.68 72.238-23.039 76.441-21.238 157.32 5.6406 254.52 4.3203 15.84 9.8398 31.68 15.121 47.039 1.9219 5.7617 3.9609 11.398 5.8789 17.16-44.641-28.199-92.039-33.719-138-39.238l-7.9219-0.96094c-29.281-3.4805-57.602 16.078-68.398 47.52-18.238 53.039 8.3984 126.6 57 157.44 69.719 44.16 140.4 84.121 219 128.04 19.441 10.801 23.641 21.238 17.52 42.602-7.9219 27.121-12.84 55.559-17.762 83.16-0.83984 4.5586-1.5586 9.1211-2.3984 13.68-1.8008 9.7188 0 18 4.8008 22.559 2.7617 2.6406 7.8008 5.3984 16.68 3.4805 9.6016-2.0391 22.68-11.879 25.922-21.84 6.7188-21 12.359-42.719 17.762-63.602 4.5586-17.762 9.3594-36.121 14.762-53.879 6.4805-21.602 2.1602-31.441-18.48-42.121-75.602-39.359-149.04-80.281-218.4-121.92-32.398-19.441-69.961-48.48-73.199-101.64-1.1992-18.84 1.1992-30 7.6797-36.359 6-5.7617 15.84-7.8008 31.199-6.3594 31.559 3 62.039 11.281 88.078 24 18.359 9 35.281 21.602 51.719 33.84 10.559 7.9219 21.602 15.961 32.879 23.16 7.1992 4.5586 21.602 4.6797 27.602 0.12109 6.6016-5.0391 11.281-19.078 9-26.762-6.2383-20.879-14.281-41.52-22.199-61.559-2.2812-5.7617-4.5586-11.52-6.7188-17.398-38.52-100.08-48.961-179.16-34.078-256.56 7.4414-38.641 31.078-71.641 54-75 35.641-5.2812 78 21 90.48 56.398 7.6797 21.602 13.922 44.039 20.039 65.879 5.2812 18.719 10.68 38.039 16.922 56.641 7.4414 22.199 18 46.199 32.16 73.199 3.1211 5.8789 17.641 8.0391 25.078 6.2383 5.5195-1.3203 10.199-13.922 9.7188-20.52-1.5586-24.238-4.4414-49.801-8.3984-75.961-11.762-77.762-15.238-159.6 38.398-231.72 5.0391-6.7188 22.441-28.922 35.16-28.078 8.0391 0.35937 16.32 10.801 24.238 20.879 2.8789 3.6016 5.7617 7.4414 8.7617 10.559 2.8789 3.2383 4.4414 8.6406 4.5586 12.602 0.83984 16.801 1.9219 33.961 3 50.52 2.7617 43.078 5.5195 87.602 4.4414 131.28-0.83984 32.52-5.8789 65.398-10.801 97.32-2.3984 15.602-4.9219 31.68-6.8398 47.52-2.6406 21 8.6406 36.238 29.16 39.719 6.7188 1.1992 12.238 0.12109 16.32-2.8789 7.3203-5.5195 9.1211-16.441 10.441-27.121 8.5195-74.762 46.199-135.48 115.56-185.76 17.762-12.961 36.719-23.039 54.602-9.3594 18 13.68 25.68 35.641 21.602 61.68-12.84 81.84-49.32 155.4-86.879 222.84-11.879 21.238 0.48047 30.238 11.398 38.16l2.0391 1.5586c5.5195 3.9609 13.559 9.1211 21.602 7.1992 6-1.4414 10.922-6.4805 15.359-15.48 14.641-30.238 40.078-54.84 79.922-77.762 25.801-14.879 73.922-12.84 88.801 3.7188 19.922 22.199 11.16 46.441-1.1992 69.238-61.68 113.28-161.4 183.24-296.28 207.72-17.762 3.2383-29.039 9.6016-29.762 31.441-0.71875 18.84-5.1602 37.922-9.3594 54.238-2.8789 11.039-6.2383 22.199-9.4805 32.879-5.6406 18.48-11.52 37.68-14.641 57-1.5586 10.078 12.121 30 22.32 32.281 0.83984 0.23828 1.8008 0.23828 2.8789 0.23828 10.68 0 27.961-10.559 31.32-19.801 8.6406-24 15.359-48.961 21.84-73.199 3.8398-14.281 7.8008-29.16 12.121-43.559 2.5195-8.5195 8.5195-18.48 13.801-19.68 55.68-13.559 105-42.359 152.76-70.199l2.3984-1.3203c73.32-42.719 126-103.44 156.72-180.24 15.48-38.641 17.039-68.398 4.8008-90.719-12.48-22.801-39.121-37.801-81.48-46.078z"/>
  <path d="m1155.7 336.96c-11.762-96.238-55.922-152.16-143.28-181.2-12-3.9609-26.879-8.8789-37.199-3.6016-4.6797 2.3984-7.9219 6.6016-9.8398 12.602-2.5195 8.0391 6.6016 19.199 15.359 30 3.3594 4.0781 6.4805 7.9219 9 11.52 1.8008 2.6406 5.7617 3.7188 9.1211 4.6797 0.71875 0.23828 1.4414 0.35937 2.1602 0.60156 66.961 20.52 94.32 59.16 94.441 133.56 0 14.879 3.7188 25.559 11.039 31.68 4.5586 3.8398 10.32 5.7617 17.16 5.7617 2.2812 0 4.8008-0.23828 7.3203-0.60156 4.4414-0.71875 8.8789-3.6016 13.559-8.6406 8.7617-9.3594 12.719-22.68 11.039-36.238z"/>
  <path d="m520.32 792.36c-10.078-24.238-19.559-47.16-33.719-66.719-14.52-20.16-41.879-33.238-63.84-43.68-2.7617-1.3203-6.2383-1.1992-10.922 0.23828-7.5586 2.3984-13.441 8.0391-16.441 15.602-2.8789 7.5586-2.2812 15.719 1.6797 22.559 2.2812 3.8398 4.6797 6.1211 7.4414 7.1992 48.719 19.078 58.559 61.801 64.078 100.44 1.8008 12.961 6.7188 22.68 14.16 28.078 4.4414 3.2383 9.6016 4.8008 15.359 4.8008 1.9219 0 3.9609-0.23828 6-0.60156 5.6406-0.96094 10.199-6 15.48-13.32 9.2383-12.84 11.039-30 4.9219-44.762-1.4414-3.3594-2.7617-6.6016-4.0781-9.9609z"/>
  <path d="m921.72 277.08c2.6406 3.3594 6.6016 5.6406 10.441 7.8008 2.1602 1.1992 4.4414 2.5195 6.3594 3.9609 20.762 15.719 29.281 32.16 27.602 52.922-0.12109 2.2812-0.48047 4.8008-0.71875 7.1992-1.0781 9.2383-2.2812 18.84 1.6797 25.559 4.6797 7.9219 17.281 27 32.398 31.199 2.8789 0.83984 5.5195 1.1992 7.9219 1.1992 3.3594 0 6.1211-0.83984 8.2812-2.5195 6.7188-5.0391 6.7188-16.441 6.6016-26.52v-1.9219c0-4.6797 0.35938-9.3594 0.71875-14.039 0.12109-2.1602 0.35938-4.3203 0.48047-6.3594 5.8789-51.961-18.48-90.84-74.762-118.8-6.2383-3.1211-14.398-1.8008-20.762-0.23828-6.6016 1.5586-12.121 6.2383-14.641 12.602-2.5195 6.2383-1.8008 13.078 1.9219 18.602 2.2812 3.4805 4.4414 6.4805 6.6016 9.1211z"/>
 </g>
</svg>
